<?xml version="1.0" standalone="no"?>
<!DOCTYPE svg PUBLIC "-//W3C//DTD SVG 20010904//EN"
 "http://www.w3.org/TR/2001/REC-SVG-20010904/DTD/svg10.dtd">
<svg version="1.0" xmlns="http://www.w3.org/2000/svg"
 width="700.000000pt" height="700.000000pt" viewBox="0 0 700.000000 700.000000"
 preserveAspectRatio="xMidYMid meet">
<metadata>
Created by potrace 1.11, written by Peter Selinger 2001-2013
</metadata>
<g transform="translate(0.000000,700.000000) scale(0.100000,-0.100000)"
fill="#000000" stroke="none">
<path d="M3245 6754 c-16 -2 -82 -11 -145 -20 -297 -41 -634 -154 -905 -305
-245 -136 -409 -261 -615 -468 -422 -423 -677 -938 -767 -1546 -21 -149 -24
-541 -4 -685 71 -519 264 -976 577 -1370 37 -47 528 -546 1091 -1110 l1023
-1025 1023 1025 c563 564 1054 1063 1091 1110 266 335 457 744 541 1160 39
192 50 313 50 545 -1 228 -10 325 -50 526 -203 1011 -969 1822 -1967 2084
-244 64 -352 77 -648 80 -146 2 -278 1 -295 -1z m1809 -1684 c104 -26 187 -72
266 -147 72 -68 120 -140 159 -241 25 -65 26 -73 26 -297 0 -200 -2 -237 -19
-285 -18 -54 -54 -128 -79 -162 -9 -14 -9 -22 2 -40 40 -62 72 -140 87 -208
16 -70 16 -102 0 -510 -9 -239 -21 -438 -25 -443 -4 -4 -115 -6 -247 -5 l-239
3 -5 438 -5 439 -24 19 c-22 18 -44 19 -407 19 l-384 0 0 -460 0 -460 -245 0
-245 0 0 1180 0 1180 653 0 c618 0 658 -1 731 -20z m-1754 -245 l0 -245 -317
-2 -318 -3 -3 -922 -2 -923 -250 0 -250 0 0 925 0 925 -320 0 -320 0 0 245 0
245 890 0 890 0 0 -245z"/>
<path d="M4167 4574 c-4 -4 -7 -106 -7 -226 l0 -219 390 3 c384 3 390 3 411
25 20 20 21 29 20 190 l-2 168 -30 30 -29 30 -373 3 c-205 1 -376 0 -380 -4z"/>
</g>
</svg>
