<svg id="Layer_1" data-name="Layer 1" xmlns="http://www.w3.org/2000/svg" viewBox="0 0 5133.9 1440"><defs><style>.cls-1{fill:#fff;}</style></defs><title>Artboard 1</title><polygon class="cls-1" points="1585.59 364.98 1271.73 364.98 1271.73 434.64 1393.83 434.64 1393.83 784.33 1464.08 784.33 1464.08 434.64 1585.59 434.64 1585.59 364.98"/><path class="cls-1" d="M1815.71,714.66H1652.24a32.4,32.4,0,0,1-23.78-9.6,31.32,31.32,0,0,1-9.69-23.46V658.09h180.77V588.42H1618.77V574.66a30.47,30.47,0,0,1,9.83-23.11,33.36,33.36,0,0,1,24.09-9.63H1815V472.26H1652.69c-29.26,0-54.17,9.73-74,28.94s-30.13,44-30.13,73.46V681.93c0,29.43,10.14,54.15,30.13,73.46s44.78,28.94,74,28.94h162.1Z"/><path class="cls-1" d="M1879.73,755.39c19.86,19.2,44.78,28.94,74,28.94h162.1l.91-69.67H1953.32a32.57,32.57,0,0,1-23.81-9.54,30.81,30.81,0,0,1-9.65-23.19V574.66a30.46,30.46,0,0,1,9.82-23.11,33.37,33.37,0,0,1,24.1-9.63H2116V472.26H1953.78c-29.26,0-54.18,9.73-74,28.94s-30.13,44-30.13,73.46V681.93C1849.6,711.36,1859.74,736.08,1879.73,755.39Z"/><path class="cls-1" d="M2379.87,501.2c-19.88-19.21-44.79-28.94-74-28.94H2204.34V363.79h-70.25V784.33h70.25V541.92h101.92a32.64,32.64,0,0,1,23.82,9.55,30.82,30.82,0,0,1,9.67,23.19V784.33H2410V574.66C2410,545.24,2399.87,520.53,2379.87,501.2Z"/><path class="cls-1" d="M2720.57,610.67h145.94a33.34,33.34,0,0,1,24.08,9.63,30.46,30.46,0,0,1,9.83,23.11V784.33h70.26V643.21c0-26.38-8.74-49.11-26-67.74,17.27-18.87,26-41.55,26-67.59V467.52c0-28.66-10.26-53.2-30.5-72.93S2895.32,365,2866.73,365H2650.31V784.33h70.26ZM2866.83,541H2720.57V434.64h146.26a32.67,32.67,0,0,1,23.89,9.61,31.05,31.05,0,0,1,9.7,23.33v40.49a31.06,31.06,0,0,1-9.7,23.34A32.65,32.65,0,0,1,2866.83,541Z"/><path class="cls-1" d="M3021.83,755.39c19.87,19.2,44.78,28.94,74.05,28.94H3258l.91-69.67H3095.42a32.38,32.38,0,0,1-23.77-9.6A31.32,31.32,0,0,1,3062,681.6V658.09h180.77V588.42H3062V574.66a30.43,30.43,0,0,1,9.83-23.11,33.33,33.33,0,0,1,24.09-9.63h162.26V472.26H3095.88c-29.26,0-54.17,9.73-74.05,28.94s-30.13,44-30.13,73.46V681.93C2991.7,711.36,3001.84,736.08,3021.83,755.39Z"/><path class="cls-1" d="M3555.08,576.84c0-28.56-10.22-53-30.39-72.69s-44.7-29.52-73.2-29.52h-97.93V365h-70.25V784.33h168.18c28.51,0,53.14-9.93,73.2-29.52s30.39-44.13,30.39-72.69ZM3451.49,714.66h-97.93V544.29h97.93a32.4,32.4,0,0,1,23.71,9.51,30.72,30.72,0,0,1,9.62,23.09V682.07a30.75,30.75,0,0,1-9.62,23.1A32.41,32.41,0,0,1,3451.49,714.66Z"/><path class="cls-1" d="M3619.26,753.61c19.86,19.2,44.78,28.94,74,28.94h68.15c29.26,0,54.18-9.73,74.05-28.94s30.13-44,30.13-73.46V574.66c0-29.42-10.13-54.13-30.13-73.46s-44.8-28.94-74.05-28.94h-68.15c-29.26,0-54.18,9.73-74,28.94s-30.13,44-30.13,73.46V680.15C3589.13,709.59,3599.27,734.3,3619.26,753.61Zm73.62-211.69h68.42a33.61,33.61,0,0,1,24.21,9.64,30.38,30.38,0,0,1,9.87,23.1V680.15a30.37,30.37,0,0,1-9.87,23.1,33.58,33.58,0,0,1-24.21,9.64h-68.42a32.62,32.62,0,0,1-23.84-9.56,30.81,30.81,0,0,1-9.65-23.18V574.66a30.85,30.85,0,0,1,9.65-23.19A32.68,32.68,0,0,1,3692.88,541.92Z"/><path class="cls-1" d="M3970,541.92h78.37c9,0,16.63,3.22,23.39,9.82s9.93,14,9.93,22.92v49.65h70.26V574.66c0-28.61-10.22-53.1-30.37-72.82s-44.72-29.58-73.21-29.58H3899.69V784.33H3970Z"/><path class="cls-1" d="M4373.39,551.74c6.68,6.54,9.93,14,9.93,22.92V784.33h70.26V574.66c0-28.61-10.22-53.1-30.38-72.82s-44.71-29.58-73.21-29.58H4177.66V784.33h70.26V541.92H4350C4359,541.92,4366.63,545.14,4373.39,551.74Z"/><polygon class="cls-1" points="4968.42 366.16 4860.62 671.34 4757.41 366.16 4689.21 366.16 4825.88 784.33 4893.99 784.33 5036.94 366.16 4968.42 366.16"/><path class="cls-1" d="M1786.46,909.78h-91.91v166.43H1732V946.93h54.44a17.11,17.11,0,0,1,12.47,5.24,16.38,16.38,0,0,1,5.3,12.22v111.82h37.47V964.39c0-15.26-5.45-28.32-16.2-38.83A54,54,0,0,0,1786.46,909.78Z"/><path class="cls-1" d="M1951.76,909.78h-36.34c-15.61,0-28.89,5.19-39.49,15.43s-16.07,23.49-16.07,39.18v56.26c0,15.7,5.4,28.88,16.07,39.17s23.88,15.44,39.49,15.44h36.34c15.61,0,28.89-5.19,39.49-15.44s16.07-23.48,16.07-39.17V964.39c0-15.69-5.4-28.87-16.07-39.18S1967.36,909.78,1951.76,909.78Zm-36.57,37.15h36.49a17.91,17.91,0,0,1,12.91,5.14,16.23,16.23,0,0,1,5.26,12.32v56.26a16.23,16.23,0,0,1-5.26,12.32,17.94,17.94,0,0,1-12.91,5.14h-36.49a17.38,17.38,0,0,1-12.71-5.1,16.4,16.4,0,0,1-5.15-12.36V964.39a16.43,16.43,0,0,1,5.15-12.37A17.42,17.42,0,0,1,1915.19,946.93Z"/><path class="cls-1" d="M2083.28,1034a16.44,16.44,0,0,1-5.16-12.36V945.67h51.52V907.88h-51.52V852.57h-37.47v55.31h-15.17v37.79h15.17v75.93c0,15.69,5.41,28.87,16.07,39.17s23.88,15.44,39.49,15.44h45.13v-37.16H2096A17.4,17.4,0,0,1,2083.28,1034Z"/><path class="cls-1" d="M2388.15,924.63c-10.59-9.86-23.85-14.85-39.4-14.85h-83.06v37.15H2349a17.4,17.4,0,0,1,12.7,5.09,16.49,16.49,0,0,1,5.15,12.37v.39h-52.23c-15.59,0-28.88,5.17-39.48,15.38s-16.07,23.42-16.07,39.07v2.52c0,15.66,5.41,28.8,16.07,39.07s23.88,15.39,39.48,15.39h89.7V963C2404.31,947.53,2398.87,934.61,2388.15,924.63Zm-73.54,114.42a17.87,17.87,0,0,1-12.86-5.1,15.83,15.83,0,0,1-5.22-12.2v-2.51a15.8,15.8,0,0,1,5.24-12.2,18,18,0,0,1,12.94-5.11h52.13v37.12Z"/><path class="cls-1" d="M2611.73,909.78h-79.27v166.43h37.47V946.93h41.8a17.16,17.16,0,0,1,12.47,5.24,16.38,16.38,0,0,1,5.3,12.22v26.47H2667V964.39c0-15.26-5.45-28.32-16.2-38.83A54,54,0,0,0,2611.73,909.78Z"/><path class="cls-1" d="M2772.61,909.78h-36.35c-15.6,0-28.89,5.19-39.49,15.43s-16.07,23.49-16.07,39.18v56.26c0,15.7,5.41,28.88,16.07,39.17s23.88,15.44,39.49,15.44h36.35c15.6,0,28.89-5.19,39.49-15.44s16.07-23.48,16.07-39.17V964.39c0-15.69-5.41-28.87-16.07-39.18S2788.21,909.78,2772.61,909.78ZM2736,946.93h36.49a17.89,17.89,0,0,1,12.91,5.14,16.24,16.24,0,0,1,5.27,12.32v56.26a16.21,16.21,0,0,1-5.27,12.32,17.94,17.94,0,0,1-12.91,5.14H2736a17.39,17.39,0,0,1-12.71-5.1,16.4,16.4,0,0,1-5.15-12.36V964.39a16.47,16.47,0,0,1,5.15-12.37A17.42,17.42,0,0,1,2736,946.93Z"/><path class="cls-1" d="M3016.93,909.78H2846.32v166.43h37.47V946.93h56.72v129.28H2978V946.93h39.16a17.43,17.43,0,0,1,12.72,5.09,16.47,16.47,0,0,1,5.16,12.37v111.82h37.47V964.39c0-15.69-5.41-28.87-16.07-39.18S3032.53,909.78,3016.93,909.78Z"/><path class="cls-1" d="M3219.74,924.63c-10.59-9.86-23.84-14.85-39.4-14.85h-83.05v37.15h83.3a17.39,17.39,0,0,1,12.69,5.09,16.45,16.45,0,0,1,5.15,12.37v.39h-52.22c-15.6,0-28.88,5.17-39.48,15.38s-16.08,23.42-16.08,39.07v2.52c0,15.66,5.41,28.8,16.08,39.07s23.87,15.39,39.48,15.39h89.69V963C3235.9,947.53,3230.47,934.61,3219.74,924.63Zm-73.53,114.42a17.85,17.85,0,0,1-12.87-5.1,15.83,15.83,0,0,1-5.22-12.2v-2.51a15.83,15.83,0,0,1,5.24-12.2,18,18,0,0,1,12.94-5.11h52.13v37.12Z"/><path class="cls-1" d="M3346,909.78h-91.91v166.43h37.47V946.93H3346a17.15,17.15,0,0,1,12.48,5.24,16.41,16.41,0,0,1,5.29,12.22v111.82h37.47V964.39c0-15.26-5.45-28.32-16.2-38.83A54,54,0,0,0,3346,909.78Z"/><path class="cls-1" d="M3621.27,909.78h-91.91v166.43h37.47V946.93h54.44a17.15,17.15,0,0,1,12.48,5.24,16.41,16.41,0,0,1,5.29,12.22v111.82h37.47V964.39c0-15.26-5.45-28.32-16.2-38.83A54,54,0,0,0,3621.27,909.78Z"/><path class="cls-1" d="M3799.93,1039.05h-54.12a17.75,17.75,0,0,1-12.85-5.13,16.22,16.22,0,0,1-5.24-12.32V909.78h-37.47V1021.6c0,15.69,5.41,28.87,16.07,39.17s23.88,15.44,39.49,15.44h91.59V909.78h-37.47Z"/><path class="cls-1" d="M4026.17,909.78H3855.56v166.43H3893V946.93h56.72v129.28h37.47V946.93h39.15a17.43,17.43,0,0,1,12.72,5.09,16.45,16.45,0,0,1,5.17,12.37v111.82h37.46V964.39c0-15.69-5.4-28.87-16.07-39.18S4041.76,909.78,4026.17,909.78Z"/><path class="cls-1" d="M4142.52,1033.93a16.69,16.69,0,0,1-5.17-12.51v-12.54h96.41V971.73h-96.41v-7.34a16.29,16.29,0,0,1,5.24-12.33,17.82,17.82,0,0,1,12.85-5.13H4242V909.78h-86.53c-15.6,0-28.89,5.19-39.49,15.43s-16.07,23.49-16.07,39.18v57.21c0,15.69,5.41,28.87,16.07,39.17s23.88,15.44,39.49,15.44h86.45l.49-37.16H4155.2A17.26,17.26,0,0,1,4142.52,1033.93Z"/><path class="cls-1" d="M4339.71,909.78h-79.26v166.43h37.47V946.93h41.79a17.15,17.15,0,0,1,12.48,5.24,16.42,16.42,0,0,1,5.3,12.22v26.47H4395V964.39c0-15.26-5.45-28.32-16.2-38.83A54.05,54.05,0,0,0,4339.71,909.78Z"/><path class="cls-1" d="M4537.78,924.63c-10.59-9.86-23.84-14.85-39.4-14.85h-83.05v37.15h83.3a17.39,17.39,0,0,1,12.69,5.09,16.45,16.45,0,0,1,5.15,12.37v.39h-52.22c-15.6,0-28.89,5.17-39.48,15.38s-16.08,23.42-16.08,39.07v2.52c0,15.66,5.41,28.81,16.07,39.07s23.88,15.39,39.49,15.39h89.69V963C4553.94,947.53,4548.51,934.61,4537.78,924.63Zm-73.53,114.42a17.85,17.85,0,0,1-12.87-5.1,15.83,15.83,0,0,1-5.22-12.2v-2.51a15.8,15.8,0,0,1,5.24-12.2,18,18,0,0,1,12.94-5.11h52.13v37.12Z"/><rect class="cls-1" x="4572.1" y="852.57" width="37.47" height="223.64"/><path class="cls-1" d="M1005.05,284.93c-185.66-186-487.21-186-672.87,0-186,185.66-186,487.21,0,672.87l336.43,336.76L1005.05,957.8C1191,772.14,1191,470.59,1005.05,284.93ZM633.72,531.42H521.37v323.3H433.65V531.42h-113V444H633.72Zm382.85,181.5v141.8H928.86V713.24a16.33,16.33,0,0,0-5.76-13.13c-4.16-4.16-8.64-5.76-14.4-5.76H785.13V854.72h-87.7V444H909c29.45,0,55.05,10.56,75.86,30.73,20.81,20.48,31.69,46.09,31.69,75.54v37.46c0,23.68-7,44.49-20.81,62.42C1009.53,668.1,1016.57,688.91,1016.57,712.92Zm-84.51-64.35a44.14,44.14,0,0,1-7,1.93,54,54,0,0,1,7.68,2.56l-2.88-2.56Zm-3.2-98.27a16.76,16.76,0,0,0-5.76-13.12c-3.84-4.16-8.32-5.76-14.08-5.76H785.13V607H909c5.76,0,10.24-1.6,14.08-5.76a17,17,0,0,0,5.76-13.44Z"/><path class="cls-1" d="M929.82,650.5l2.24-1.93a44.14,44.14,0,0,1-7,1.93,54,54,0,0,1,7.68,2.56Z"/></svg>